Force Data File
version=1
nRows=53
nColumns=13
Range=1.000000e-02-10 seconds
endheader
time 	Force_r_vx 	Force_r_vy 	Force_r_vz 	Force_r_px 	Force_r_py 	Force_r_pz 	Force_l_vx 	Force_l_vy 	Force_l_vz 	Force_l_px 	Force_l_py 	Force_l_pz 		
0.010000 163.041919 129.204367 -1.986772 0.494329 0.267630 -0.095737 3047.242584 2303.987059 -35.428341 0.187864 0.329813 -0.335152
0.020000 200.584813 94.667407 -1.459146 0.490755 0.256163 -0.095737 3203.958678 2065.476238 -31.836000 0.192292 0.341207 -0.335189
0.030000 212.536406 74.146063 -1.141377 0.486401 0.242674 -0.095716 3359.129345 1788.695892 -27.534512 0.197286 0.352459 -0.335143
0.040000 202.571017 75.380227 -1.163278 0.481216 0.230663 -0.095684 3489.003319 1508.508052 -23.279505 0.203086 0.363518 -0.335199
0.050000 176.681958 102.509747 -1.566708 0.475243 0.219035 -0.095628 3599.145648 1214.229803 -18.557682 0.209664 0.374346 -0.335300
0.060000 134.488043 176.609475 -2.698795 0.468467 0.207929 -0.095547 3691.489114 909.897552 -13.904278 0.216396 0.384830 -0.335023
0.070000 96.179171 274.461599 -4.207122 0.460947 0.197247 -0.095478 3754.692943 597.005771 -9.151285 0.224099 0.395061 -0.335040
0.080000 70.279668 377.711156 -5.773530 0.452801 0.187070 -0.095356 3791.292225 282.448257 -4.317382 0.232352 0.404773 -0.335012
0.090000 60.193384 466.293481 -7.158463 0.444033 0.177645 -0.095322 3801.525367 -32.164815 0.493789 0.241216 0.414185 -0.334965
0.100000 66.444490 517.650712 -7.971714 0.434704 0.169010 -0.095225 3786.192034 -339.466009 5.227707 0.250415 0.422894 -0.334890
0.110000 82.426758 505.669032 -7.756135 0.424919 0.160925 -0.095190 3746.732377 -641.651386 9.841882 0.260170 0.431028 -0.334965
0.120000 91.455630 517.756179 -7.976513 0.414772 0.153815 -0.095139 3685.222793 -932.371128 14.364040 0.270293 0.438597 -0.334993
0.130000 98.022770 523.001691 -8.035382 0.404230 0.147434 -0.095154 3602.570315 -1212.896242 18.634902 0.280900 0.445305 -0.335085
0.140000 102.418974 520.770614 -7.980594 0.393463 0.142005 -0.095192 3501.316265 -1479.296961 22.669614 0.291802 0.451262 -0.335140
0.150000 106.428059 509.641431 -7.820509 0.382229 0.137494 -0.095059 3382.878932 -1732.712358 26.588680 0.302782 0.456498 -0.335318
0.160000 107.903882 491.485238 -7.551748 0.370921 0.133815 -0.095061 3246.261959 -1976.889256 30.375213 0.314624 0.460907 -0.336937
0.170000 103.812480 468.543684 -7.171334 0.359356 0.131194 -0.094946 3102.206493 -2195.781147 33.607708 0.325431 0.464489 -0.335832
0.180000 100.964331 441.414060 -6.755577 0.347669 0.129222 -0.094862 2941.626299 -2406.765487 36.834102 0.336920 0.467213 -0.335835
0.190000 96.882170 411.781425 -6.303441 0.335999 0.128498 -0.094826 2771.194158 -2601.606640 39.824707 0.348388 0.468911 -0.335885
0.200000 92.021140 381.999076 -5.848944 0.324277 0.128555 -0.094695 2590.691854 -2781.821550 42.593605 0.359741 0.469969 -0.335971
0.210000 86.622510 351.435270 -5.366072 0.312597 0.129506 -0.094560 2401.307743 -2947.045495 44.998496 0.370936 0.469933 -0.335934
0.220000 81.938599 320.348266 -4.893095 0.301005 0.131484 -0.094479 2201.447137 -3099.204995 47.338181 0.382016 0.468733 -0.335973
0.230000 77.951639 290.279631 -4.431860 0.289677 0.134409 -0.094377 1994.560079 -3236.511356 49.413612 0.392908 0.466868 -0.336016
0.240000 73.899539 263.482659 -4.000611 0.278417 0.138196 -0.094326 1777.329145 -3360.816933 51.029243 0.403628 0.463939 -0.335876
0.250000 67.464501 239.711521 -3.646471 0.267658 0.142802 -0.094357 1555.079942 -3469.160921 52.772577 0.413884 0.460027 -0.335848
0.260000 60.371469 217.283935 -3.316750 0.257279 0.148151 -0.094452 1327.192501 -3562.594234 54.381531 0.423679 0.455161 -0.335897
0.270000 51.952290 198.060407 -3.019592 0.247398 0.154350 -0.094527 1095.110268 -3640.547065 55.503107 0.432981 0.449637 -0.335875
0.280000 44.149211 182.827299 -2.783680 0.237857 0.161275 -0.094457 855.415053 -3704.101624 56.397662 0.441847 0.443221 -0.335880
0.290000 37.027107 168.925016 -2.572176 0.228929 0.169011 -0.094441 611.490733 -3752.107159 57.132324 0.450115 0.436071 -0.335858
0.300000 31.022315 157.448601 -2.394508 0.220802 0.177319 -0.094479 363.874401 -3784.037914 57.548371 0.457752 0.427929 -0.335919
0.310000 26.931307 147.628846 -2.249460 0.213223 0.186021 -0.094502 113.858332 -3800.181510 57.904371 0.464739 0.419118 -0.335998
0.320000 23.673509 139.513436 -2.126184 0.206425 0.195580 -0.094486 -141.932578 -3799.372648 57.902424 0.471166 0.409722 -0.336094
0.330000 20.025965 131.444022 -1.990581 0.200529 0.205674 -0.094507 -399.631601 -3781.159485 57.261664 0.476816 0.399662 -0.336061
0.340000 15.990942 121.785269 -1.843771 0.195401 0.216079 -0.094441 -660.145643 -3744.742937 56.693611 0.481903 0.388947 -0.336022
0.350000 10.883676 110.555235 -1.671538 0.191262 0.226822 -0.094506 -920.112380 -3689.616485 55.785089 0.486385 0.377830 -0.336165
0.360000 4.889500 99.028189 -1.499323 0.187927 0.237855 -0.094488 -1182.047785 -3614.203933 54.720371 0.490094 0.366085 -0.336402
0.370000 -1.740406 87.295572 -1.320762 0.185443 0.249382 -0.094391 -1441.016188 -3518.875680 53.239767 0.492746 0.354238 -0.335600
0.380000 -8.962623 75.994239 -1.141625 0.183836 0.260956 -0.094264 -1699.774648 -3401.256998 51.095457 0.495546 0.341899 -0.337187
0.390000 -16.320201 65.977747 -0.986812 0.182987 0.272787 -0.094235 -1953.454018 -3262.487262 48.796184 0.496710 0.329227 -0.336814
0.400000 -22.363510 60.640321 -0.907548 0.182975 0.284692 -0.094172 -2199.934463 -3101.681878 46.420021 0.496838 0.316382 -0.335919
0.410000 -26.459819 59.677577 -0.894023 0.183654 0.296644 -0.094144 -2434.972990 -2920.702072 43.754700 0.496447 0.303699 -0.335826
0.420000 -27.149232 60.518086 -0.904290 0.185254 0.308609 -0.094191 -2662.568242 -2714.986279 40.568613 0.495291 0.290571 -0.335972
0.430000 -24.801055 63.502437 -0.944257 0.187480 0.320738 -0.094262 -2874.245814 -2489.891059 37.023725 0.493046 0.277858 -0.335934
0.440000 -22.417338 67.609551 -1.005632 0.190556 0.332758 -0.094338 -3070.046960 -2243.821511 33.374854 0.490084 0.265098 -0.335941
0.450000 -20.276915 73.521097 -1.098188 0.194400 0.344614 -0.094505 -3246.540655 -1979.459117 29.567282 0.486357 0.252462 -0.336133
0.460000 -18.993846 79.507516 -1.180682 0.199109 0.356333 -0.094494 -3401.608510 -1699.159076 25.232405 0.481668 0.240185 -0.336147
0.470000 -17.439279 85.047619 -1.269824 0.204455 0.367680 -0.094678 -3532.381186 -1407.257824 21.011408 0.476167 0.228251 -0.336246
0.480000 -13.638199 89.670663 -1.328969 0.210625 0.379044 -0.094858 -3640.180113 -1098.682864 16.283088 0.469930 0.216417 -0.336186
0.490000 -9.731746 93.804059 -1.396117 0.217456 0.389733 -0.094967 -3719.366545 -789.767994 11.754376 0.463022 0.205366 -0.336327
0.500000 -6.238050 96.628567 -1.432348 0.224990 0.400165 -0.095002 -3772.538209 -475.579678 7.049632 0.455488 0.194791 -0.336409
0.510000 -2.642367 100.240518 -1.486422 0.233073 0.410142 -0.095208 -3799.150440 -161.511240 2.394978 0.447304 0.184742 -0.336148
0.520000 -1.649964 109.582117 -1.618577 0.241715 0.419791 -0.095298 -3799.864728 147.967849 -2.185552 0.438627 0.175561 -0.336160
0.530000 1.755735 123.322816 -1.824529 0.250492 0.428658 -0.095973 -3776.574797 445.342137 -6.588720 0.429551 0.166985 -0.336023
